<svg width="87" height="97" viewBox="0 0 87 97" fill="none" xmlns="http://www.w3.org/2000/svg">
<path d="M11.108 85.2898H8.98295C8.92235 84.9413 8.81061 84.6326 8.64773 84.3636C8.48485 84.0909 8.2822 83.8598 8.03977 83.6705C7.79735 83.4811 7.52083 83.339 7.21023 83.2443C6.90341 83.1458 6.57197 83.0966 6.21591 83.0966C5.58333 83.0966 5.02273 83.2557 4.53409 83.5739C4.04545 83.8883 3.66288 84.3504 3.38636 84.9602C3.10985 85.5663 2.97159 86.3068 2.97159 87.1818C2.97159 88.072 3.10985 88.822 3.38636 89.4318C3.66667 90.0379 4.04924 90.4962 4.53409 90.8068C5.02273 91.1136 5.58144 91.267 6.21023 91.267C6.55871 91.267 6.88447 91.2216 7.1875 91.1307C7.49432 91.036 7.76894 90.8977 8.01136 90.7159C8.25758 90.5341 8.46402 90.3106 8.63068 90.0455C8.80114 89.7803 8.91856 89.4773 8.98295 89.1364L11.108 89.1477C11.0284 89.7008 10.8561 90.2197 10.5909 90.7045C10.3295 91.1894 9.98674 91.6174 9.5625 91.9886C9.13826 92.3561 8.64205 92.6439 8.07386 92.8523C7.50568 93.0568 6.875 93.1591 6.18182 93.1591C5.15909 93.1591 4.24621 92.9223 3.44318 92.4489C2.64015 91.9754 2.00758 91.2917 1.54545 90.3977C1.08333 89.5038 0.852273 88.4318 0.852273 87.1818C0.852273 85.928 1.08523 84.8561 1.55114 83.9659C2.01705 83.072 2.65152 82.3883 3.45455 81.9148C4.25758 81.4413 5.16667 81.2045 6.18182 81.2045C6.82955 81.2045 7.43182 81.2955 7.98864 81.4773C8.54545 81.6591 9.04167 81.9261 9.47727 82.2784C9.91288 82.6269 10.2708 83.0549 10.5511 83.5625C10.8352 84.0663 11.0208 84.642 11.108 85.2898ZM15.0043 87.8864V93H12.9474V81.3636H14.9588V85.7557H15.0611C15.2656 85.2633 15.5819 84.875 16.0099 84.5909C16.4418 84.303 16.991 84.1591 17.6577 84.1591C18.2637 84.1591 18.7921 84.286 19.2429 84.5398C19.6937 84.7936 20.0421 85.1648 20.2884 85.6534C20.5384 86.142 20.6634 86.7386 20.6634 87.4432V93H18.6065V87.7614C18.6065 87.1742 18.455 86.7178 18.152 86.392C17.8527 86.0625 17.4323 85.8977 16.8906 85.8977C16.527 85.8977 16.2012 85.9773 15.9134 86.1364C15.6293 86.2917 15.4058 86.517 15.2429 86.8125C15.0838 87.108 15.0043 87.4659 15.0043 87.8864ZM25.2713 93.1761C24.7183 93.1761 24.2202 93.0777 23.777 92.8807C23.3376 92.6799 22.9891 92.3845 22.7315 91.9943C22.4777 91.6042 22.3509 91.1231 22.3509 90.5511C22.3509 90.0587 22.4418 89.6515 22.6236 89.3295C22.8054 89.0076 23.0535 88.75 23.3679 88.5568C23.6823 88.3636 24.0365 88.2178 24.4304 88.1193C24.8281 88.017 25.2391 87.9432 25.6634 87.8977C26.1747 87.8447 26.5895 87.7973 26.9077 87.7557C27.2259 87.7102 27.4569 87.642 27.6009 87.5511C27.7486 87.4564 27.8224 87.3106 27.8224 87.1136V87.0795C27.8224 86.6515 27.6955 86.3201 27.4418 86.0852C27.188 85.8504 26.8224 85.733 26.3452 85.733C25.8414 85.733 25.4418 85.8428 25.1463 86.0625C24.8546 86.2822 24.6577 86.5417 24.5554 86.8409L22.6349 86.5682C22.7865 86.0379 23.0365 85.5947 23.3849 85.2386C23.7334 84.8788 24.1596 84.6098 24.6634 84.4318C25.1671 84.25 25.724 84.1591 26.3338 84.1591C26.7543 84.1591 27.1728 84.2083 27.5895 84.3068C28.0062 84.4053 28.3868 84.5682 28.7315 84.7955C29.0762 85.0189 29.3527 85.3239 29.5611 85.7102C29.7732 86.0966 29.8793 86.5795 29.8793 87.1591V93H27.902V91.8011H27.8338C27.7088 92.0436 27.5327 92.2708 27.3054 92.483C27.0819 92.6913 26.7997 92.8598 26.4588 92.9886C26.1217 93.1136 25.7259 93.1761 25.2713 93.1761ZM25.8054 91.6648C26.2183 91.6648 26.5762 91.5833 26.8793 91.4205C27.1823 91.2538 27.4152 91.0341 27.5781 90.7614C27.7448 90.4886 27.8281 90.1913 27.8281 89.8693V88.8409C27.7637 88.8939 27.6539 88.9432 27.4986 88.9886C27.3471 89.0341 27.1766 89.0739 26.9872 89.108C26.7978 89.142 26.6103 89.1723 26.4247 89.1989C26.2391 89.2254 26.0781 89.2481 25.9418 89.267C25.6349 89.3087 25.3603 89.3769 25.1179 89.4716C24.8755 89.5663 24.6842 89.6989 24.544 89.8693C24.4039 90.036 24.3338 90.2519 24.3338 90.517C24.3338 90.8958 24.4721 91.1818 24.7486 91.375C25.0251 91.5682 25.3774 91.6648 25.8054 91.6648ZM34.0043 81.3636V93H31.9474V81.3636H34.0043ZM38.1761 81.3636V93H36.1193V81.3636H38.1761ZM44.1548 93.1705C43.2798 93.1705 42.5241 92.9886 41.8878 92.625C41.2552 92.2576 40.7685 91.7386 40.4276 91.0682C40.0866 90.3939 39.9162 89.6004 39.9162 88.6875C39.9162 87.7898 40.0866 87.0019 40.4276 86.3239C40.7723 85.642 41.2533 85.1117 41.8707 84.733C42.4882 84.3504 43.2135 84.1591 44.0469 84.1591C44.5848 84.1591 45.0923 84.2462 45.5696 84.4205C46.0507 84.5909 46.4749 84.8561 46.8423 85.2159C47.2135 85.5758 47.5052 86.0341 47.7173 86.5909C47.9295 87.1439 48.0355 87.803 48.0355 88.5682V89.1989H40.8821V87.8125H46.0639C46.0601 87.4186 45.9749 87.0682 45.8082 86.7614C45.6416 86.4508 45.4086 86.2064 45.1094 86.0284C44.8139 85.8504 44.4692 85.7614 44.0753 85.7614C43.6548 85.7614 43.2855 85.8636 42.9673 86.0682C42.6491 86.2689 42.401 86.5341 42.223 86.8636C42.0488 87.1894 41.9598 87.5473 41.956 87.9375V89.1477C41.956 89.6553 42.0488 90.0909 42.2344 90.4545C42.42 90.8144 42.6795 91.0909 43.0128 91.2841C43.3461 91.4735 43.7363 91.5682 44.1832 91.5682C44.4825 91.5682 44.7533 91.5265 44.9957 91.4432C45.2382 91.3561 45.4484 91.2292 45.6264 91.0625C45.8045 90.8958 45.9389 90.6894 46.0298 90.4432L47.9503 90.6591C47.8291 91.1667 47.598 91.6098 47.2571 91.9886C46.92 92.3636 46.4882 92.6553 45.9616 92.8636C45.4351 93.0682 44.8329 93.1705 44.1548 93.1705ZM51.8324 87.8864V93H49.7756V84.2727H51.7415V85.7557H51.8438C52.0445 85.267 52.3646 84.8788 52.804 84.5909C53.2472 84.303 53.7945 84.1591 54.446 84.1591C55.0483 84.1591 55.5729 84.2879 56.0199 84.5455C56.4706 84.803 56.8191 85.1761 57.0653 85.6648C57.3153 86.1534 57.4384 86.7462 57.4347 87.4432V93H55.3778V87.7614C55.3778 87.178 55.2263 86.7216 54.9233 86.392C54.6241 86.0625 54.2093 85.8977 53.679 85.8977C53.3191 85.8977 52.9991 85.9773 52.7188 86.1364C52.4422 86.2917 52.2244 86.517 52.0653 86.8125C51.91 87.108 51.8324 87.4659 51.8324 87.8864ZM63.321 96.4545C62.5824 96.4545 61.9479 96.3542 61.4176 96.1534C60.8873 95.9564 60.4612 95.6913 60.1392 95.358C59.8172 95.0246 59.5938 94.6553 59.4688 94.25L61.321 93.8011C61.4044 93.9716 61.5256 94.1402 61.6847 94.3068C61.8438 94.4773 62.0578 94.6174 62.3267 94.7273C62.5994 94.8409 62.9422 94.8977 63.3551 94.8977C63.9384 94.8977 64.4214 94.7557 64.804 94.4716C65.1866 94.1913 65.3778 93.7292 65.3778 93.0852V91.4318H65.2756C65.1695 91.6439 65.0142 91.8617 64.8097 92.0852C64.6089 92.3087 64.3419 92.4962 64.0085 92.6477C63.679 92.7992 63.2642 92.875 62.7642 92.875C62.0938 92.875 61.4858 92.7178 60.9403 92.4034C60.3987 92.0852 59.9669 91.6117 59.6449 90.983C59.3267 90.3504 59.1676 89.5587 59.1676 88.608C59.1676 87.6496 59.3267 86.8409 59.6449 86.1818C59.9669 85.5189 60.4006 85.017 60.946 84.6761C61.4915 84.3314 62.0994 84.1591 62.7699 84.1591C63.2813 84.1591 63.7017 84.2462 64.0312 84.4205C64.3646 84.5909 64.6297 84.7973 64.8267 85.0398C65.0237 85.2784 65.1733 85.5038 65.2756 85.7159H65.3892V84.2727H67.4176V93.142C67.4176 93.8883 67.2396 94.5057 66.8835 94.9943C66.5275 95.483 66.0407 95.8485 65.4233 96.0909C64.8059 96.3333 64.1051 96.4545 63.321 96.4545ZM63.3381 91.2614C63.7737 91.2614 64.1449 91.1553 64.4517 90.9432C64.7585 90.7311 64.9915 90.4261 65.1506 90.0284C65.3097 89.6307 65.3892 89.1534 65.3892 88.5966C65.3892 88.0473 65.3097 87.5663 65.1506 87.1534C64.9953 86.7405 64.7642 86.4205 64.4574 86.1932C64.1544 85.9621 63.7813 85.8466 63.3381 85.8466C62.8797 85.8466 62.4972 85.9659 62.1903 86.2045C61.8835 86.4432 61.6525 86.7708 61.4972 87.1875C61.3419 87.6004 61.2642 88.0701 61.2642 88.5966C61.2642 89.1307 61.3419 89.5985 61.4972 90C61.6563 90.3977 61.8892 90.7083 62.196 90.9318C62.5066 91.1515 62.8873 91.2614 63.3381 91.2614ZM73.3892 93.1705C72.5142 93.1705 71.7585 92.9886 71.1222 92.625C70.4896 92.2576 70.0028 91.7386 69.6619 91.0682C69.321 90.3939 69.1506 89.6004 69.1506 88.6875C69.1506 87.7898 69.321 87.0019 69.6619 86.3239C70.0066 85.642 70.4877 85.1117 71.1051 84.733C71.7225 84.3504 72.4479 84.1591 73.2812 84.1591C73.8191 84.1591 74.3267 84.2462 74.804 84.4205C75.285 84.5909 75.7093 84.8561 76.0767 85.2159C76.4479 85.5758 76.7396 86.0341 76.9517 86.5909C77.1638 87.1439 77.2699 87.803 77.2699 88.5682V89.1989H70.1165V87.8125H75.2983C75.2945 87.4186 75.2093 87.0682 75.0426 86.7614C74.8759 86.4508 74.643 86.2064 74.3438 86.0284C74.0483 85.8504 73.7036 85.7614 73.3097 85.7614C72.8892 85.7614 72.5199 85.8636 72.2017 86.0682C71.8835 86.2689 71.6354 86.5341 71.4574 86.8636C71.2831 87.1894 71.1941 87.5473 71.1903 87.9375V89.1477C71.1903 89.6553 71.2831 90.0909 71.4688 90.4545C71.6544 90.8144 71.9138 91.0909 72.2472 91.2841C72.5805 91.4735 72.9706 91.5682 73.4176 91.5682C73.7169 91.5682 73.9877 91.5265 74.2301 91.4432C74.4725 91.3561 74.6828 91.2292 74.8608 91.0625C75.0388 90.8958 75.1733 90.6894 75.2642 90.4432L77.1847 90.6591C77.0634 91.1667 76.8324 91.6098 76.4915 91.9886C76.1544 92.3636 75.7225 92.6553 75.196 92.8636C74.6695 93.0682 74.0672 93.1705 73.3892 93.1705ZM85.9077 86.5795L84.0327 86.7841C83.9796 86.5947 83.8868 86.4167 83.7543 86.25C83.6255 86.0833 83.4512 85.9489 83.2315 85.8466C83.0118 85.7443 82.7429 85.6932 82.4247 85.6932C81.9967 85.6932 81.6368 85.786 81.3452 85.9716C81.0573 86.1572 80.9152 86.3977 80.919 86.6932C80.9152 86.947 81.008 87.1534 81.1974 87.3125C81.3906 87.4716 81.7088 87.6023 82.152 87.7045L83.6406 88.0227C84.4664 88.2008 85.08 88.483 85.4815 88.8693C85.8868 89.2557 86.0914 89.7614 86.0952 90.3864C86.0914 90.9356 85.9304 91.4205 85.6122 91.8409C85.2978 92.2576 84.8603 92.5833 84.2997 92.8182C83.7391 93.053 83.0952 93.1705 82.3679 93.1705C81.2997 93.1705 80.4399 92.947 79.7884 92.5C79.1368 92.0492 78.7486 91.4223 78.6236 90.6193L80.6293 90.4261C80.7202 90.8201 80.9134 91.1174 81.2088 91.3182C81.5043 91.5189 81.8887 91.6193 82.3622 91.6193C82.8509 91.6193 83.2429 91.5189 83.5384 91.3182C83.8376 91.1174 83.9872 90.8693 83.9872 90.5739C83.9872 90.3239 83.8906 90.1174 83.6974 89.9545C83.508 89.7917 83.2126 89.6667 82.8111 89.5795L81.3224 89.267C80.4853 89.0928 79.866 88.7992 79.4645 88.3864C79.063 87.9697 78.8641 87.4432 78.8679 86.8068C78.8641 86.2689 79.0099 85.803 79.3054 85.4091C79.6046 85.0114 80.0194 84.7045 80.5497 84.4886C81.0838 84.2689 81.6993 84.1591 82.3963 84.1591C83.419 84.1591 84.224 84.3769 84.8111 84.8125C85.402 85.2481 85.7675 85.8371 85.9077 86.5795Z" fill="#00FF80"/>
<path d="M28.3333 46.6666H65.6667V9.33331H61.6667V27.8666L55.4667 24.0666L49.2667 27.8666V9.33331H28.3333V46.6666ZM28.3333 50.6666C27.2667 50.6666 26.3333 50.2666 25.5333 49.4666C24.7333 48.6666 24.3333 47.7333 24.3333 46.6666V9.33331C24.3333 8.26665 24.7333 7.33331 25.5333 6.53331C26.3333 5.73331 27.2667 5.33331 28.3333 5.33331H65.6667C66.7333 5.33331 67.6667 5.73331 68.4667 6.53331C69.2667 7.33331 69.6667 8.26665 69.6667 9.33331V46.6666C69.6667 47.7333 69.2667 48.6666 68.4667 49.4666C67.6667 50.2666 66.7333 50.6666 65.6667 50.6666H28.3333ZM20.3333 58.6666C19.2667 58.6666 18.3333 58.2666 17.5333 57.4666C16.7333 56.6666 16.3333 55.7333 16.3333 54.6666V13.3333H20.3333V54.6666H61.6667V58.6666H20.3333Z" fill="#00FF80"/>
</svg>
