<svg width="92" height="93" viewBox="0 0 92 93" fill="none" xmlns="http://www.w3.org/2000/svg">
<path d="M8.94318 80.746C8.84849 80.4392 8.7178 80.1646 8.55114 79.9222C8.38826 79.676 8.19129 79.4657 7.96023 79.2915C7.73295 79.1173 7.47159 78.9866 7.17614 78.8995C6.88068 78.8085 6.55871 78.7631 6.21023 78.7631C5.58523 78.7631 5.02841 78.9203 4.53977 79.2347C4.05114 79.5491 3.66667 80.0112 3.38636 80.621C3.10985 81.2271 2.97159 81.9657 2.97159 82.837C2.97159 83.7157 3.10985 84.4601 3.38636 85.0699C3.66288 85.6798 4.04735 86.1438 4.53977 86.462C5.0322 86.7764 5.60417 86.9335 6.25568 86.9335C6.84659 86.9335 7.35795 86.8199 7.78977 86.5926C8.22538 86.3654 8.56061 86.0434 8.79545 85.6267C9.0303 85.2063 9.14773 84.7139 9.14773 84.1495L9.625 84.2233H6.46591V82.5756H11.1875V83.9733C11.1875 84.9695 10.9754 85.8313 10.5511 86.5585C10.1269 87.2858 9.54356 87.8464 8.80114 88.2404C8.05871 88.6305 7.20644 88.8256 6.24432 88.8256C5.17235 88.8256 4.23106 88.5851 3.42045 88.104C2.61364 87.6192 1.98295 86.9317 1.52841 86.0415C1.07765 85.1476 0.852273 84.087 0.852273 82.8597C0.852273 81.9203 0.984848 81.0813 1.25 80.3426C1.51894 79.604 1.89394 78.9771 2.375 78.462C2.85606 77.943 3.42045 77.5491 4.06818 77.2801C4.71591 77.0074 5.42045 76.871 6.18182 76.871C6.82576 76.871 7.42614 76.9657 7.98295 77.1551C8.53977 77.3407 9.03409 77.6059 9.46591 77.9506C9.90152 78.2953 10.2595 78.7044 10.5398 79.1779C10.8201 79.6514 11.0038 80.1741 11.0909 80.746H8.94318ZM15.6463 88.8426C15.0933 88.8426 14.5952 88.7442 14.152 88.5472C13.7126 88.3464 13.3641 88.051 13.1065 87.6608C12.8527 87.2707 12.7259 86.7896 12.7259 86.2176C12.7259 85.7252 12.8168 85.318 12.9986 84.996C13.1804 84.6741 13.4285 84.4165 13.7429 84.2233C14.0573 84.0301 14.4115 83.8843 14.8054 83.7858C15.2031 83.6835 15.6141 83.6097 16.0384 83.5642C16.5497 83.5112 16.9645 83.4639 17.2827 83.4222C17.6009 83.3767 17.8319 83.3085 17.9759 83.2176C18.1236 83.1229 18.1974 82.9771 18.1974 82.7801V82.746C18.1974 82.318 18.0705 81.9866 17.8168 81.7517C17.563 81.5169 17.1974 81.3995 16.7202 81.3995C16.2164 81.3995 15.8168 81.5093 15.5213 81.729C15.2296 81.9487 15.0327 82.2082 14.9304 82.5074L13.0099 82.2347C13.1615 81.7044 13.4115 81.2612 13.7599 80.9051C14.1084 80.5453 14.5346 80.2764 15.0384 80.0983C15.5421 79.9165 16.099 79.8256 16.7088 79.8256C17.1293 79.8256 17.5478 79.8748 17.9645 79.9733C18.3812 80.0718 18.7618 80.2347 19.1065 80.462C19.4512 80.6854 19.7277 80.9904 19.9361 81.3767C20.1482 81.7631 20.2543 82.246 20.2543 82.8256V88.6665H18.277V87.4676H18.2088C18.0838 87.7101 17.9077 87.9373 17.6804 88.1495C17.4569 88.3578 17.1747 88.5264 16.8338 88.6551C16.4967 88.7801 16.1009 88.8426 15.6463 88.8426ZM16.1804 87.3313C16.5933 87.3313 16.9512 87.2498 17.2543 87.087C17.5573 86.9203 17.7902 86.7006 17.9531 86.4279C18.1198 86.1551 18.2031 85.8578 18.2031 85.5358V84.5074C18.1387 84.5604 18.0289 84.6097 17.8736 84.6551C17.7221 84.7006 17.5516 84.7404 17.3622 84.7745C17.1728 84.8085 16.9853 84.8389 16.7997 84.8654C16.6141 84.8919 16.4531 84.9146 16.3168 84.9335C16.0099 84.9752 15.7353 85.0434 15.4929 85.1381C15.2505 85.2328 15.0592 85.3654 14.919 85.5358C14.7789 85.7025 14.7088 85.9184 14.7088 86.1835C14.7088 86.5623 14.8471 86.8483 15.1236 87.0415C15.4001 87.2347 15.7524 87.3313 16.1804 87.3313ZM22.3224 88.6665V79.9392H24.2884V81.4222H24.3906C24.5724 80.9222 24.8736 80.532 25.294 80.2517C25.7145 79.9676 26.2164 79.8256 26.7997 79.8256C27.3906 79.8256 27.8887 79.9695 28.294 80.2574C28.7031 80.5415 28.991 80.9298 29.1577 81.4222H29.2486C29.4418 80.9373 29.7675 80.551 30.2259 80.2631C30.688 79.9714 31.2353 79.8256 31.8679 79.8256C32.6709 79.8256 33.3262 80.0794 33.8338 80.587C34.3414 81.0945 34.5952 81.8351 34.5952 82.8085V88.6665H32.5327V83.1267C32.5327 82.5851 32.3887 82.1892 32.1009 81.9392C31.813 81.6854 31.4607 81.5585 31.044 81.5585C30.5478 81.5585 30.1596 81.7139 29.8793 82.0245C29.6027 82.3313 29.4645 82.7309 29.4645 83.2233V88.6665H27.4474V83.0415C27.4474 82.5907 27.3111 82.2309 27.0384 81.962C26.7694 81.693 26.4171 81.5585 25.9815 81.5585C25.6861 81.5585 25.4171 81.6343 25.1747 81.7858C24.9323 81.9335 24.7391 82.1438 24.5952 82.4165C24.4512 82.6854 24.3793 82.9998 24.3793 83.3597V88.6665H22.3224ZM40.5455 88.837C39.6705 88.837 38.9148 88.6551 38.2784 88.2915C37.6458 87.9241 37.1591 87.4051 36.8182 86.7347C36.4773 86.0604 36.3068 85.2669 36.3068 84.354C36.3068 83.4563 36.4773 82.6684 36.8182 81.9904C37.1629 81.3085 37.6439 80.7782 38.2614 80.3995C38.8788 80.0169 39.6042 79.8256 40.4375 79.8256C40.9754 79.8256 41.483 79.9127 41.9602 80.087C42.4413 80.2574 42.8655 80.5226 43.233 80.8824C43.6042 81.2423 43.8958 81.7006 44.108 82.2574C44.3201 82.8104 44.4261 83.4695 44.4261 84.2347V84.8654H37.2727V83.479H42.4545C42.4508 83.0851 42.3655 82.7347 42.1989 82.4279C42.0322 82.1173 41.7992 81.8729 41.5 81.6949C41.2045 81.5169 40.8598 81.4279 40.4659 81.4279C40.0455 81.4279 39.6761 81.5301 39.358 81.7347C39.0398 81.9354 38.7917 82.2006 38.6136 82.5301C38.4394 82.8559 38.3504 83.2139 38.3466 83.604V84.8142C38.3466 85.3218 38.4394 85.7574 38.625 86.121C38.8106 86.4809 39.0701 86.7574 39.4034 86.9506C39.7367 87.14 40.1269 87.2347 40.5739 87.2347C40.8731 87.2347 41.1439 87.193 41.3864 87.1097C41.6288 87.0226 41.839 86.8957 42.017 86.729C42.1951 86.5623 42.3295 86.3559 42.4205 86.1097L44.3409 86.3256C44.2197 86.8332 43.9886 87.2764 43.6477 87.6551C43.3106 88.0301 42.8788 88.3218 42.3523 88.5301C41.8258 88.7347 41.2235 88.837 40.5455 88.837ZM50.2259 88.6665V77.0301H54.5895C55.4834 77.0301 56.2334 77.1854 56.8395 77.496C57.4493 77.8067 57.9096 78.2423 58.2202 78.8029C58.5346 79.3597 58.6918 80.0093 58.6918 80.7517C58.6918 81.4979 58.5327 82.1457 58.2145 82.6949C57.9001 83.2404 57.4361 83.6627 56.8224 83.962C56.2088 84.2574 55.455 84.4051 54.5611 84.4051H51.4531V82.6551H54.277C54.7997 82.6551 55.2277 82.5832 55.5611 82.4392C55.8944 82.2915 56.1406 82.0775 56.2997 81.7972C56.4626 81.5131 56.544 81.1646 56.544 80.7517C56.544 80.3389 56.4626 79.9866 56.2997 79.6949C56.1368 79.3995 55.8887 79.176 55.5554 79.0245C55.2221 78.8692 54.7921 78.7915 54.2656 78.7915H52.3338V88.6665H50.2259ZM56.2372 83.3938L59.1179 88.6665H56.7656L53.9361 83.3938H56.2372ZM66.1037 84.996V79.9392H68.1605V88.6665H66.1662V87.1154H66.0753C65.8783 87.604 65.5545 88.0036 65.1037 88.3142C64.6567 88.6248 64.1056 88.7801 63.4503 88.7801C62.8783 88.7801 62.3726 88.6532 61.9332 88.3995C61.4976 88.1419 61.1567 87.7688 60.9105 87.2801C60.6643 86.7877 60.5412 86.193 60.5412 85.496V79.9392H62.598V85.1779C62.598 85.7309 62.7495 86.1703 63.0526 86.496C63.3556 86.8218 63.7533 86.9847 64.2457 86.9847C64.5488 86.9847 64.8423 86.9108 65.1264 86.7631C65.4105 86.6154 65.6435 86.3957 65.8253 86.104C66.0109 85.8085 66.1037 85.4392 66.1037 84.996ZM72.3324 77.0301V88.6665H70.2756V77.0301H72.3324ZM78.3111 88.837C77.4361 88.837 76.6804 88.6551 76.044 88.2915C75.4115 87.9241 74.9247 87.4051 74.5838 86.7347C74.2429 86.0604 74.0724 85.2669 74.0724 84.354C74.0724 83.4563 74.2429 82.6684 74.5838 81.9904C74.9285 81.3085 75.4096 80.7782 76.027 80.3995C76.6444 80.0169 77.3698 79.8256 78.2031 79.8256C78.741 79.8256 79.2486 79.9127 79.7259 80.087C80.2069 80.2574 80.6312 80.5226 80.9986 80.8824C81.3698 81.2423 81.6615 81.7006 81.8736 82.2574C82.0857 82.8104 82.1918 83.4695 82.1918 84.2347V84.8654H75.0384V83.479H80.2202C80.2164 83.0851 80.1312 82.7347 79.9645 82.4279C79.7978 82.1173 79.5649 81.8729 79.2656 81.6949C78.9702 81.5169 78.6255 81.4279 78.2315 81.4279C77.8111 81.4279 77.4418 81.5301 77.1236 81.7347C76.8054 81.9354 76.5573 82.2006 76.3793 82.5301C76.205 82.8559 76.116 83.2139 76.1122 83.604V84.8142C76.1122 85.3218 76.205 85.7574 76.3906 86.121C76.5762 86.4809 76.8357 86.7574 77.169 86.9506C77.5024 87.14 77.8925 87.2347 78.3395 87.2347C78.6387 87.2347 78.9096 87.193 79.152 87.1097C79.3944 87.0226 79.6046 86.8957 79.7827 86.729C79.9607 86.5623 80.0952 86.3559 80.1861 86.1097L82.1065 86.3256C81.9853 86.8332 81.7543 87.2764 81.4134 87.6551C81.0762 88.0301 80.6444 88.3218 80.1179 88.5301C79.5914 88.7347 78.9891 88.837 78.3111 88.837ZM90.8295 82.246L88.9545 82.4506C88.9015 82.2612 88.8087 82.0832 88.6761 81.9165C88.5473 81.7498 88.3731 81.6154 88.1534 81.5131C87.9337 81.4108 87.6648 81.3597 87.3466 81.3597C86.9186 81.3597 86.5587 81.4525 86.267 81.6381C85.9792 81.8237 85.8371 82.0642 85.8409 82.3597C85.8371 82.6135 85.9299 82.8199 86.1193 82.979C86.3125 83.1381 86.6307 83.2688 87.0739 83.371L88.5625 83.6892C89.3883 83.8673 90.0019 84.1495 90.4034 84.5358C90.8087 84.9222 91.0133 85.4279 91.017 86.0529C91.0133 86.6021 90.8523 87.087 90.5341 87.5074C90.2197 87.9241 89.7822 88.2498 89.2216 88.4847C88.661 88.7195 88.017 88.837 87.2898 88.837C86.2216 88.837 85.3617 88.6135 84.7102 88.1665C84.0587 87.7157 83.6705 87.0889 83.5455 86.2858L85.5511 86.0926C85.642 86.4866 85.8352 86.7839 86.1307 86.9847C86.4261 87.1854 86.8106 87.2858 87.2841 87.2858C87.7727 87.2858 88.1648 87.1854 88.4602 86.9847C88.7595 86.7839 88.9091 86.5358 88.9091 86.2404C88.9091 85.9904 88.8125 85.7839 88.6193 85.621C88.4299 85.4582 88.1345 85.3332 87.733 85.246L86.2443 84.9335C85.4072 84.7593 84.7879 84.4657 84.3864 84.0529C83.9848 83.6362 83.786 83.1097 83.7898 82.4733C83.786 81.9354 83.9318 81.4695 84.2273 81.0756C84.5265 80.6779 84.9413 80.371 85.4716 80.1551C86.0057 79.9354 86.6212 79.8256 87.3182 79.8256C88.3409 79.8256 89.1458 80.0434 89.733 80.479C90.3239 80.9146 90.6894 81.5036 90.8295 82.246Z" fill="#00FF80"/>
<path d="M44.2 40H48.2V24H44.2V40ZM45.9988 19.0667C46.6218 19.0667 47.1444 18.8622 47.5666 18.4533C47.9889 18.0444 48.2 17.5378 48.2 16.9333C48.2 16.2911 47.9893 15.7528 47.5678 15.3183C47.1464 14.8839 46.6242 14.6667 46.0012 14.6667C45.3782 14.6667 44.8555 14.8839 44.4333 15.3183C44.0111 15.7528 43.8 16.2911 43.8 16.9333C43.8 17.5378 44.0107 18.0444 44.4321 18.4533C44.8536 18.8622 45.3758 19.0667 45.9988 19.0667ZM46.0177 53.3333C42.3406 53.3333 38.8851 52.6333 35.651 51.2333C32.417 49.8333 29.5889 47.9222 27.1666 45.5C24.7444 43.0778 22.8333 40.248 21.4333 37.0106C20.0333 33.7733 19.3333 30.3142 19.3333 26.6333C19.3333 22.9525 20.0333 19.4934 21.4333 16.2561C22.8333 13.0187 24.7444 10.2 27.1666 7.8C29.5889 5.4 32.4187 3.5 35.656 2.1C38.8934 0.7 42.3525 0 46.0333 0C49.7142 0 53.1732 0.7 56.4106 2.1C59.648 3.5 62.4666 5.4 64.8666 7.8C67.2666 10.2 69.1666 13.0222 70.5666 16.2667C71.9666 19.5111 72.6666 22.9719 72.6666 26.6489C72.6666 30.326 71.9666 33.7816 70.5666 37.0156C69.1666 40.2496 67.2666 43.0737 64.8666 45.4877C62.4666 47.9018 59.6444 49.8129 56.4 51.2211C53.1555 52.6292 49.6948 53.3333 46.0177 53.3333ZM46.0333 49.3333C52.3222 49.3333 57.6666 47.1222 62.0666 42.7C66.4666 38.2778 68.6667 32.9222 68.6667 26.6333C68.6667 20.3444 66.4708 15 62.0792 10.6C57.6875 6.2 52.3278 4 46 4C39.7333 4 34.3889 6.19582 29.9666 10.5875C25.5444 14.9792 23.3333 20.3389 23.3333 26.6667C23.3333 32.9333 25.5444 38.2778 29.9666 42.7C34.3889 47.1222 39.7444 49.3333 46.0333 49.3333Z" fill="#00FF80"/>
</svg>
