<svg width="73" height="101" viewBox="0 0 73 101" fill="none" xmlns="http://www.w3.org/2000/svg">
<path d="M7.47159 88.5625C7.41856 88.0663 7.19508 87.6799 6.80114 87.4034C6.41099 87.1269 5.90341 86.9886 5.27841 86.9886C4.83902 86.9886 4.46212 87.0549 4.14773 87.1875C3.83333 87.3201 3.5928 87.5 3.42614 87.7273C3.25947 87.9545 3.17424 88.214 3.17045 88.5057C3.17045 88.7481 3.22538 88.9583 3.33523 89.1364C3.44886 89.3144 3.60227 89.4659 3.79545 89.5909C3.98864 89.7121 4.20265 89.8144 4.4375 89.8977C4.67235 89.9811 4.90909 90.0511 5.14773 90.108L6.23864 90.3807C6.67803 90.483 7.10038 90.6212 7.50568 90.7955C7.91477 90.9697 8.2803 91.1894 8.60227 91.4545C8.92803 91.7197 9.18561 92.0398 9.375 92.4148C9.56439 92.7898 9.65909 93.2292 9.65909 93.733C9.65909 94.4148 9.48485 95.0152 9.13636 95.5341C8.78788 96.0492 8.28409 96.4527 7.625 96.7443C6.9697 97.0322 6.17614 97.1761 5.24432 97.1761C4.33902 97.1761 3.55303 97.036 2.88636 96.7557C2.22348 96.4754 1.70455 96.0663 1.32955 95.5284C0.958333 94.9905 0.757576 94.3352 0.727273 93.5625H2.80114C2.83144 93.9678 2.95644 94.3049 3.17614 94.5739C3.39583 94.8428 3.68182 95.0436 4.03409 95.1761C4.39015 95.3087 4.78788 95.375 5.22727 95.375C5.68561 95.375 6.08712 95.3068 6.43182 95.1705C6.7803 95.0303 7.05303 94.8371 7.25 94.5909C7.44697 94.3409 7.54735 94.0492 7.55114 93.7159C7.54735 93.4129 7.45833 93.1629 7.28409 92.9659C7.10985 92.7652 6.86553 92.5985 6.55114 92.4659C6.24053 92.3295 5.87689 92.2083 5.46023 92.1023L4.13636 91.7614C3.17803 91.5152 2.42045 91.142 1.86364 90.642C1.31061 90.1383 1.03409 89.4697 1.03409 88.6364C1.03409 87.9508 1.2197 87.3504 1.59091 86.8352C1.96591 86.3201 2.47538 85.9205 3.11932 85.6364C3.76326 85.3485 4.49242 85.2045 5.30682 85.2045C6.13258 85.2045 6.85606 85.3485 7.47727 85.6364C8.10227 85.9205 8.5928 86.3163 8.94886 86.8239C9.30492 87.3277 9.48864 87.9072 9.5 88.5625H7.47159ZM15.2543 97.1705C14.402 97.1705 13.6634 96.983 13.0384 96.608C12.4134 96.233 11.9285 95.7083 11.5838 95.0341C11.2429 94.3598 11.0724 93.572 11.0724 92.6705C11.0724 91.7689 11.2429 90.9792 11.5838 90.3011C11.9285 89.6231 12.4134 89.0966 13.0384 88.7216C13.6634 88.3466 14.402 88.1591 15.2543 88.1591C16.1065 88.1591 16.8452 88.3466 17.4702 88.7216C18.0952 89.0966 18.5781 89.6231 18.919 90.3011C19.2637 90.9792 19.4361 91.7689 19.4361 92.6705C19.4361 93.572 19.2637 94.3598 18.919 95.0341C18.5781 95.7083 18.0952 96.233 17.4702 96.608C16.8452 96.983 16.1065 97.1705 15.2543 97.1705ZM15.2656 95.5227C15.7277 95.5227 16.1141 95.3958 16.4247 95.142C16.7353 94.8845 16.9664 94.5398 17.1179 94.108C17.2732 93.6761 17.3509 93.1951 17.3509 92.6648C17.3509 92.1307 17.2732 91.6477 17.1179 91.2159C16.9664 90.7803 16.7353 90.4337 16.4247 90.1761C16.1141 89.9186 15.7277 89.7898 15.2656 89.7898C14.7921 89.7898 14.3982 89.9186 14.0838 90.1761C13.7732 90.4337 13.5402 90.7803 13.3849 91.2159C13.2334 91.6477 13.1577 92.1307 13.1577 92.6648C13.1577 93.1951 13.2334 93.6761 13.3849 94.108C13.5402 94.5398 13.7732 94.8845 14.0838 95.142C14.3982 95.3958 14.7921 95.5227 15.2656 95.5227ZM23.2386 85.3636V97H21.1818V85.3636H23.2386ZM30.9162 93.3295V88.2727H32.973V97H30.9787V95.4489H30.8878C30.6908 95.9375 30.367 96.3371 29.9162 96.6477C29.4692 96.9583 28.9181 97.1136 28.2628 97.1136C27.6908 97.1136 27.1851 96.9867 26.7457 96.733C26.3101 96.4754 25.9692 96.1023 25.723 95.6136C25.4768 95.1212 25.3537 94.5265 25.3537 93.8295V88.2727H27.4105V93.5114C27.4105 94.0644 27.562 94.5038 27.8651 94.8295C28.1681 95.1553 28.5658 95.3182 29.0582 95.3182C29.3613 95.3182 29.6548 95.2443 29.9389 95.0966C30.223 94.9489 30.456 94.7292 30.6378 94.4375C30.8234 94.142 30.9162 93.7727 30.9162 93.3295ZM39.446 88.2727V89.8636H34.429V88.2727H39.446ZM35.6676 86.1818H37.7244V94.375C37.7244 94.6515 37.7661 94.8636 37.8494 95.0114C37.9366 95.1553 38.0502 95.2538 38.1903 95.3068C38.3305 95.3598 38.4858 95.3864 38.6562 95.3864C38.785 95.3864 38.9025 95.3769 39.0085 95.358C39.1184 95.339 39.2017 95.322 39.2585 95.3068L39.6051 96.9148C39.4953 96.9527 39.3381 96.9943 39.1335 97.0398C38.9328 97.0852 38.6866 97.1117 38.3949 97.1193C37.8797 97.1345 37.4157 97.0568 37.0028 96.8864C36.59 96.7121 36.2623 96.4432 36.0199 96.0795C35.7813 95.7159 35.6638 95.2614 35.6676 94.7159V86.1818ZM41.1662 97V88.2727H43.223V97H41.1662ZM42.2003 87.0341C41.8745 87.0341 41.5942 86.9261 41.3594 86.7102C41.1245 86.4905 41.0071 86.2273 41.0071 85.9205C41.0071 85.6098 41.1245 85.3466 41.3594 85.1307C41.5942 84.911 41.8745 84.8011 42.2003 84.8011C42.5298 84.8011 42.8101 84.911 43.0412 85.1307C43.276 85.3466 43.3935 85.6098 43.3935 85.9205C43.3935 86.2273 43.276 86.4905 43.0412 86.7102C42.8101 86.9261 42.5298 87.0341 42.2003 87.0341ZM49.1449 97.1705C48.2926 97.1705 47.554 96.983 46.929 96.608C46.304 96.233 45.8191 95.7083 45.4744 95.0341C45.1335 94.3598 44.9631 93.572 44.9631 92.6705C44.9631 91.7689 45.1335 90.9792 45.4744 90.3011C45.8191 89.6231 46.304 89.0966 46.929 88.7216C47.554 88.3466 48.2926 88.1591 49.1449 88.1591C49.9972 88.1591 50.7358 88.3466 51.3608 88.7216C51.9858 89.0966 52.4688 89.6231 52.8097 90.3011C53.1544 90.9792 53.3267 91.7689 53.3267 92.6705C53.3267 93.572 53.1544 94.3598 52.8097 95.0341C52.4688 95.7083 51.9858 96.233 51.3608 96.608C50.7358 96.983 49.9972 97.1705 49.1449 97.1705ZM49.1562 95.5227C49.6184 95.5227 50.0047 95.3958 50.3153 95.142C50.6259 94.8845 50.857 94.5398 51.0085 94.108C51.1638 93.6761 51.2415 93.1951 51.2415 92.6648C51.2415 92.1307 51.1638 91.6477 51.0085 91.2159C50.857 90.7803 50.6259 90.4337 50.3153 90.1761C50.0047 89.9186 49.6184 89.7898 49.1562 89.7898C48.6828 89.7898 48.2888 89.9186 47.9744 90.1761C47.6638 90.4337 47.4309 90.7803 47.2756 91.2159C47.1241 91.6477 47.0483 92.1307 47.0483 92.6648C47.0483 93.1951 47.1241 93.6761 47.2756 94.108C47.4309 94.5398 47.6638 94.8845 47.9744 95.142C48.2888 95.3958 48.6828 95.5227 49.1562 95.5227ZM57.1293 91.8864V97H55.0724V88.2727H57.0384V89.7557H57.1406C57.3414 89.267 57.6615 88.8788 58.1009 88.5909C58.544 88.303 59.0914 88.1591 59.7429 88.1591C60.3452 88.1591 60.8698 88.2879 61.3168 88.5455C61.7675 88.803 62.116 89.1761 62.3622 89.6648C62.6122 90.1534 62.7353 90.7462 62.7315 91.4432V97H60.6747V91.7614C60.6747 91.178 60.5232 90.7216 60.2202 90.392C59.9209 90.0625 59.5062 89.8977 58.9759 89.8977C58.616 89.8977 58.2959 89.9773 58.0156 90.1364C57.7391 90.2917 57.5213 90.517 57.3622 90.8125C57.2069 91.108 57.1293 91.4659 57.1293 91.8864ZM71.7202 90.5795L69.8452 90.7841C69.7921 90.5947 69.6993 90.4167 69.5668 90.25C69.438 90.0833 69.2637 89.9489 69.044 89.8466C68.8243 89.7443 68.5554 89.6932 68.2372 89.6932C67.8092 89.6932 67.4493 89.786 67.1577 89.9716C66.8698 90.1572 66.7277 90.3977 66.7315 90.6932C66.7277 90.947 66.8205 91.1534 67.0099 91.3125C67.2031 91.4716 67.5213 91.6023 67.9645 91.7045L69.4531 92.0227C70.2789 92.2008 70.8925 92.483 71.294 92.8693C71.6993 93.2557 71.9039 93.7614 71.9077 94.3864C71.9039 94.9356 71.7429 95.4205 71.4247 95.8409C71.1103 96.2576 70.6728 96.5833 70.1122 96.8182C69.5516 97.053 68.9077 97.1705 68.1804 97.1705C67.1122 97.1705 66.2524 96.947 65.6009 96.5C64.9493 96.0492 64.5611 95.4223 64.4361 94.6193L66.4418 94.4261C66.5327 94.8201 66.7259 95.1174 67.0213 95.3182C67.3168 95.5189 67.7012 95.6193 68.1747 95.6193C68.6634 95.6193 69.0554 95.5189 69.3509 95.3182C69.6501 95.1174 69.7997 94.8693 69.7997 94.5739C69.7997 94.3239 69.7031 94.1174 69.5099 93.9545C69.3205 93.7917 69.0251 93.6667 68.6236 93.5795L67.1349 93.267C66.2978 93.0928 65.6785 92.7992 65.277 92.3864C64.8755 91.9697 64.6766 91.4432 64.6804 90.8068C64.6766 90.2689 64.8224 89.803 65.1179 89.4091C65.4171 89.0114 65.8319 88.7045 66.3622 88.4886C66.8963 88.2689 67.5118 88.1591 68.2088 88.1591C69.2315 88.1591 70.0365 88.3769 70.6236 88.8125C71.2145 89.2481 71.58 89.8371 71.7202 90.5795Z" fill="#00FF80"/>
<path d="M36 58.6666C32.2222 58.6666 28.7111 57.9888 25.4667 56.6333C22.2222 55.2777 19.4 53.3999 17 50.9999C14.6 48.5999 12.7222 45.7777 11.3667 42.5333C10.0111 39.2888 9.33333 35.7777 9.33333 31.9999C9.33333 28.2666 10.0111 24.7777 11.3667 21.5333C12.7222 18.2888 14.6 15.4666 17 13.0666C19.4 10.6666 22.2222 8.7777 25.4667 7.39992C28.7111 6.02214 32.2222 5.33325 36 5.33325C39.3333 5.33325 42.4444 5.86659 45.3333 6.93325C48.2222 7.99992 50.8222 9.46659 53.1333 11.3333L50.2667 14.1999C48.3111 12.6444 46.1333 11.4444 43.7333 10.5999C41.3333 9.75547 38.7555 9.33325 36 9.33325C29.5555 9.33325 24.1667 11.4999 19.8333 15.8333C15.5 20.1666 13.3333 25.5555 13.3333 31.9999C13.3333 38.4444 15.5 43.8333 19.8333 48.1666C24.1667 52.4999 29.5555 54.6666 36 54.6666C42.4444 54.6666 47.8333 52.4999 52.1667 48.1666C56.5 43.8333 58.6667 38.4444 58.6667 31.9999C58.6667 30.6666 58.5667 29.3666 58.3667 28.0999C58.1667 26.8333 57.8667 25.5999 57.4667 24.3999L60.5333 21.3333C61.2444 22.9777 61.7778 24.6888 62.1333 26.4666C62.4889 28.2444 62.6667 30.0888 62.6667 31.9999C62.6667 35.7777 61.9778 39.2888 60.6 42.5333C59.2222 45.7777 57.3333 48.5999 54.9333 50.9999C52.5333 53.3999 49.7111 55.2777 46.4667 56.6333C43.2222 57.9888 39.7333 58.6666 36 58.6666ZM32.0667 44.1333L21.0667 33.0666L24.0667 30.0666L32.0667 38.0666L59.6667 10.4666L62.7333 13.4666L32.0667 44.1333Z" fill="#00FF80"/>
</svg>
